<svg width="25" height="26" viewBox="0 0 25 26" fill="none" xmlns="http://www.w3.org/2000/svg">
<path d="M15.6272 13C15.6272 15.145 14.0272 16.8783 12.0472 16.8783C10.0672 16.8783 8.46716 15.145 8.46716 13C8.46716 10.855 10.0672 9.12167 12.0472 9.12167C14.0272 9.12167 15.6272 10.855 15.6272 13Z" stroke="#292D32" stroke-width="1.5" stroke-linecap="round" stroke-linejoin="round"/>
<path d="M12.0471 21.9592C15.5771 21.9592 18.8671 19.7058 21.1571 15.8058C22.0571 14.2783 22.0571 11.7108 21.1571 10.1833C18.8671 6.28333 15.5771 4.03 12.0471 4.03C8.51708 4.03 5.22708 6.28333 2.93708 10.1833C2.03708 11.7108 2.03708 14.2783 2.93708 15.8058C5.22708 19.7058 8.51708 21.9592 12.0471 21.9592Z" stroke="#292D32" stroke-width="1.5" stroke-linecap="round" stroke-linejoin="round"/>
</svg>
