<svg width="25" height="26" viewBox="0 0 25 26" fill="none" xmlns="http://www.w3.org/2000/svg">
<path d="M14.5772 10.2592L9.51716 15.7408C8.86716 15.0367 8.46716 14.0725 8.46716 13C8.46716 10.855 10.0672 9.12167 12.0472 9.12167C13.0372 9.12167 13.9272 9.555 14.5772 10.2592Z" stroke="#292D32" stroke-width="1.5" stroke-linecap="round" stroke-linejoin="round"/>
<path d="M17.8671 6.25083C16.1171 4.82083 14.1171 4.04083 12.0471 4.04083C8.51708 4.04083 5.22708 6.29417 2.93708 10.1942C2.03708 11.7217 2.03708 14.2892 2.93708 15.8167C3.72708 17.16 4.64708 18.3192 5.64708 19.2508" stroke="#292D32" stroke-width="1.5" stroke-linecap="round" stroke-linejoin="round"/>
<path d="M8.46716 21.1575C9.60716 21.6775 10.8172 21.9592 12.0472 21.9592C15.5772 21.9592 18.8672 19.7058 21.1572 15.8058C22.0572 14.2783 22.0572 11.7108 21.1572 10.1833C20.8272 9.62 20.4672 9.08917 20.0972 8.59084" stroke="#292D32" stroke-width="1.5" stroke-linecap="round" stroke-linejoin="round"/>
<path d="M15.5571 13.7583C15.2971 15.2858 14.1471 16.5317 12.7371 16.8133" stroke="#292D32" stroke-width="1.5" stroke-linecap="round" stroke-linejoin="round"/>
<path d="M9.51712 15.7408L2.04712 23.8333" stroke="#292D32" stroke-width="1.5" stroke-linecap="round" stroke-linejoin="round"/>
<path d="M22.0471 2.16666L14.5771 10.2592" stroke="#292D32" stroke-width="1.5" stroke-linecap="round" stroke-linejoin="round"/>
</svg>
