<svg width="13" height="12" viewBox="0 0 13 12" fill="none" xmlns="http://www.w3.org/2000/svg">
<path d="M6.49984 11.8337C3.27809 11.8337 0.666504 9.22208 0.666504 6.00033C0.666504 2.77858 3.27809 0.166992 6.49984 0.166992C9.72159 0.166992 12.3332 2.77858 12.3332 6.00033C12.3332 9.22208 9.72159 11.8337 6.49984 11.8337ZM6.49984 10.667C7.73751 10.667 8.9245 10.1753 9.79967 9.30016C10.6748 8.42499 11.1665 7.238 11.1665 6.00033C11.1665 4.76265 10.6748 3.57566 9.79967 2.70049C8.9245 1.82532 7.73751 1.33366 6.49984 1.33366C5.26216 1.33366 4.07518 1.82532 3.20001 2.70049C2.32484 3.57566 1.83317 4.76265 1.83317 6.00033C1.83317 7.238 2.32484 8.42499 3.20001 9.30016C4.07518 10.1753 5.26216 10.667 6.49984 10.667ZM5.9165 3.08366H7.08317V4.25033H5.9165V3.08366ZM5.9165 5.41699H7.08317V8.91699H5.9165V5.41699Z" fill="#A0A0A0"/>
</svg>
